<svg version="1.1" id="Layer_1" xmlns="http://www.w3.org/2000/svg" xmlns:xlink="http://www.w3.org/1999/xlink" x="0px" y="0px"
	 width="100%" viewBox="0 0 224 224" enable-background="new 0 0 224 224" xml:space="preserve">
<path fill="#000000" opacity="1.000000" stroke="none" 
	d="
M198.348511,168.964050 
	C198.969940,179.950607 196.338806,188.968994 186.754028,194.770874 
	C182.980484,197.055084 178.896683,198.308121 174.432114,198.306656 
	C137.100021,198.294525 99.767830,198.357666 62.435886,198.285889 
	C48.607601,198.259293 38.234005,188.273895 38.092049,173.809540 
	C37.758411,139.814728 37.718407,105.811089 38.121475,71.817688 
	C38.300640,56.707329 48.444973,47.703884 63.582222,47.620480 
	C65.582031,47.609459 67.600304,47.420753 69.577759,47.625664 
	C73.514381,48.033592 75.999474,47.210938 75.889191,42.458225 
	C75.825455,39.711670 78.030785,38.307724 80.623634,38.326675 
	C83.490944,38.347630 85.691246,40.096985 85.498253,42.944035 
	C85.197449,47.381458 87.461220,47.811718 90.921959,47.622070 
	C109.070900,46.627518 127.222893,47.962193 145.377167,47.676933 
	C148.771301,47.623600 150.745117,46.993511 150.845001,43.129871 
	C150.917160,40.338932 152.559326,38.354904 155.579681,38.347244 
	C158.507126,38.339817 160.535263,40.234169 160.659561,42.913727 
	C160.871796,47.488575 163.493958,47.886517 167.023712,47.645523 
	C169.180389,47.498272 171.355209,47.597839 173.521652,47.615723 
	C188.295532,47.737663 198.294357,57.713581 198.313339,72.474167 
	C198.354507,104.472969 198.340195,136.471848 198.348511,168.964050 
M173.238861,187.867767 
	C183.226074,187.553268 187.852188,182.908722 187.864151,172.979965 
	C187.895645,146.817963 187.871063,120.655899 187.866943,94.493858 
	C187.865585,85.930031 187.862976,85.935471 179.514008,85.934662 
	C137.854675,85.930618 96.194611,86.037277 54.536900,85.773552 
	C49.324028,85.740555 48.079811,87.205521 48.117161,92.127167 
	C48.318218,118.620811 48.196259,145.116760 48.236725,171.611847 
	C48.253853,182.825562 53.210144,187.823608 64.318375,187.834564 
	C100.312027,187.870071 136.305725,187.860931 173.238861,187.867767 
M102.491257,57.433380 
	C99.159920,57.432262 95.818962,57.589840 92.499756,57.388664 
	C88.609978,57.152912 85.614090,57.439377 85.588722,62.578251 
	C85.575951,65.164986 83.404564,66.758865 80.836006,66.869469 
	C78.205925,66.982719 75.848053,65.373138 76.002769,62.833714 
	C76.357307,57.014809 72.681770,57.401672 68.916435,57.424538 
	C65.417206,57.445789 61.933254,57.388992 58.491657,58.279243 
	C53.302219,59.621616 50.140301,63.031647 48.685989,67.989609 
	C46.950871,73.904892 48.287735,75.631317 54.328918,75.637932 
	C81.819275,75.668053 109.309662,75.671379 136.800034,75.681175 
	C152.128098,75.686638 167.457291,75.584923 182.783447,75.757126 
	C186.743546,75.801620 188.129074,74.446648 187.883972,70.526909 
	C187.427551,63.227558 181.839264,57.746849 174.096344,57.458290 
	C171.768265,57.371529 169.414764,57.621769 167.108215,57.380314 
	C163.217957,56.973076 160.651596,57.858898 160.468384,62.396122 
	C160.345413,65.442055 158.189499,66.884979 155.412689,66.781464 
	C152.822708,66.684921 150.842575,64.982368 150.914001,62.308727 
	C151.036987,57.704899 148.437149,57.340828 144.823425,57.373119 
	C131.006607,57.496590 117.188103,57.431770 102.491257,57.433380 
z"/>
</svg>